<svg width="16" height="14" viewBox="0 0 16 14" fill="none" xmlns="http://www.w3.org/2000/svg">
<path d="M10.6668 11L12.0002 12.3333L14.6668 9.66667M8.00016 9H5.3335C4.09099 9 3.46973 9 2.97967 9.20299C2.32627 9.47364 1.80713 9.99277 1.53648 10.6462C1.3335 11.1362 1.3335 11.7575 1.3335 13M10.3335 1.19384C11.3108 1.58943 12.0002 2.54754 12.0002 3.66667C12.0002 4.78579 11.3108 5.7439 10.3335 6.13949M9.00016 3.66667C9.00016 5.13943 7.80626 6.33333 6.3335 6.33333C4.86074 6.33333 3.66683 5.13943 3.66683 3.66667C3.66683 2.19391 4.86074 1 6.3335 1C7.80626 1 9.00016 2.19391 9.00016 3.66667Z" stroke="#344054" stroke-width="1.5" stroke-linecap="round" stroke-linejoin="round"/>
</svg>
