<svg width="16" height="14" viewBox="0 0 16 14" fill="none" xmlns="http://www.w3.org/2000/svg">
<path d="M11.3335 8.66667V6.66295C11.3335 6.5433 11.3335 6.48348 11.3153 6.43066C11.2992 6.38395 11.2729 6.34141 11.2383 6.30611C11.1992 6.26619 11.1457 6.23944 11.0387 6.18593L8.00016 4.66667M2.66683 5.33334V9.87108C2.66683 10.119 2.66683 10.243 2.70551 10.3515C2.7397 10.4475 2.79543 10.5343 2.86842 10.6054C2.95097 10.6858 3.06368 10.7374 3.28906 10.8408L7.55573 12.7963C7.71922 12.8712 7.80097 12.9087 7.88612 12.9235C7.96159 12.9366 8.03874 12.9366 8.1142 12.9235C8.19936 12.9087 8.28111 12.8712 8.44459 12.7963L12.7113 10.8408C12.9367 10.7374 13.0494 10.6858 13.1319 10.6054C13.2049 10.5343 13.2606 10.4475 13.2948 10.3515C13.3335 10.243 13.3335 10.119 13.3335 9.87108V5.33334M1.3335 4.66667L7.76165 1.45259C7.8491 1.40887 7.89283 1.387 7.9387 1.3784C7.97932 1.37078 8.02101 1.37078 8.06163 1.3784C8.1075 1.387 8.15122 1.40887 8.23868 1.45259L14.6668 4.66667L8.23868 7.88075C8.15122 7.92447 8.1075 7.94634 8.06163 7.95494C8.02101 7.96256 7.97932 7.96256 7.9387 7.95494C7.89283 7.94634 7.8491 7.92447 7.76165 7.88075L1.3335 4.66667Z" stroke="#344054" stroke-width="1.5" stroke-linecap="round" stroke-linejoin="round"/>
</svg>
