<svg width="18" height="20" viewBox="0 0 18 20" fill="none" xmlns="http://www.w3.org/2000/svg">
<path d="M6.79496 17.5C7.38257 18.0187 8.15444 18.3334 8.99981 18.3334C9.84518 18.3334 10.6171 18.0187 11.2047 17.5M13.9998 6.66669C13.9998 5.3406 13.473 4.06884 12.5353 3.13115C11.5977 2.19347 10.3259 1.66669 8.99981 1.66669C7.67373 1.66669 6.40196 2.19347 5.46428 3.13115C4.5266 4.06884 3.99981 5.3406 3.99981 6.66669C3.99981 9.24184 3.3502 11.005 2.62453 12.1712C2.01242 13.1549 1.70636 13.6468 1.71758 13.784C1.73001 13.9359 1.7622 13.9939 1.88463 14.0847C1.99519 14.1667 2.49364 14.1667 3.49052 14.1667H14.5091C15.506 14.1667 16.0044 14.1667 16.115 14.0847C16.2374 13.9939 16.2696 13.9359 16.282 13.784C16.2933 13.6468 15.9872 13.1549 15.3751 12.1712C14.6494 11.005 13.9998 9.24184 13.9998 6.66669Z" stroke="#344054" stroke-width="1.66667" stroke-linecap="round" stroke-linejoin="round"/>
</svg>
