<svg width="14" height="16" viewBox="0 0 14 16" fill="none" xmlns="http://www.w3.org/2000/svg">
<path d="M6.99984 7.33337V11.3334M6.99984 11.3334L4.99984 9.33337M6.99984 11.3334L8.99984 9.33337M9.6665 2.66671C10.2865 2.66671 10.5965 2.66671 10.8508 2.73486C11.541 2.91979 12.0801 3.45889 12.265 4.14907C12.3332 4.4034 12.3332 4.71339 12.3332 5.33337V11.4667C12.3332 12.5868 12.3332 13.1469 12.1152 13.5747C11.9234 13.951 11.6175 14.257 11.2412 14.4487C10.8133 14.6667 10.2533 14.6667 9.13317 14.6667H4.8665C3.7464 14.6667 3.18635 14.6667 2.75852 14.4487C2.3822 14.257 2.07624 13.951 1.88449 13.5747C1.6665 13.1469 1.6665 12.5868 1.6665 11.4667V5.33337C1.6665 4.71339 1.6665 4.4034 1.73465 4.14907C1.91959 3.45889 2.45868 2.91979 3.14887 2.73486C3.4032 2.66671 3.71319 2.66671 4.33317 2.66671M5.39984 4.00004H8.59984C8.9732 4.00004 9.15989 4.00004 9.3025 3.92738C9.42794 3.86346 9.52993 3.76148 9.59384 3.63603C9.6665 3.49343 9.6665 3.30674 9.6665 2.93337V2.40004C9.6665 2.02667 9.6665 1.83999 9.59384 1.69738C9.52993 1.57194 9.42794 1.46995 9.3025 1.40604C9.15989 1.33337 8.97321 1.33337 8.59984 1.33337H5.39984C5.02647 1.33337 4.83978 1.33337 4.69718 1.40604C4.57174 1.46995 4.46975 1.57194 4.40583 1.69738C4.33317 1.83999 4.33317 2.02667 4.33317 2.40004V2.93337C4.33317 3.30674 4.33317 3.49343 4.40583 3.63603C4.46975 3.76148 4.57174 3.86346 4.69718 3.92738C4.83978 4.00004 5.02647 4.00004 5.39984 4.00004Z" stroke="#344054" stroke-width="1.5" stroke-linecap="round" stroke-linejoin="round"/>
</svg>
