<svg width="16" height="16" viewBox="0 0 16 16" fill="none" xmlns="http://www.w3.org/2000/svg">
<rect x="0.5" y="0.5" width="15" height="15" rx="7.5" fill="#FCFCFD"/>
<path d="M11.8607 5.48625C11.8607 5.48626 11.8607 5.48626 11.8607 5.48626L11.4819 5.1686C11.4819 5.16857 11.4819 5.16853 11.4819 5.1685L11.8607 5.48625ZM11.5016 5.04242C11.5016 5.04242 11.5014 5.04294 11.5007 5.04396L11.5016 5.04242ZM7.14516 10.0731L7.88493 9.35913C7.20696 10.1714 6.67417 10.8127 6.58893 10.924L6.57083 10.9476L6.55466 10.9726C6.55282 10.9755 6.54726 10.9821 6.53598 10.9882C6.52469 10.9943 6.51326 10.9967 6.50434 10.9967C6.48409 10.9967 6.47151 10.9921 6.46436 10.9882C6.45807 10.9848 6.4532 10.9806 6.44931 10.9754L5.49723 9.42672L6.07676 10.0459L6.59717 10.6019L7.14516 10.0731ZM12.0043 5.60673L11.8806 5.50297L11.8806 5.50295L12.0043 5.60673Z" fill="#FCFAFF" stroke="#344054" stroke-width="1.5"/>
<rect x="0.5" y="0.5" width="15" height="15" rx="7.5" stroke="#475467"/>
</svg>
