<svg width="14" height="16" viewBox="0 0 14 16" fill="none" xmlns="http://www.w3.org/2000/svg">
<path d="M5 12.3334H9M3.66667 10H10.3333M2.33333 1.33337H11.6667C12.403 1.33337 13 1.99666 13 2.81486V13.1852C13 14.0034 12.403 14.6667 11.6667 14.6667H2.33333C1.59695 14.6667 1 14.0034 1 13.1852V2.81486C1 1.99666 1.59695 1.33337 2.33333 1.33337ZM6.9984 4.14133C6.53189 3.62191 5.75394 3.48218 5.16943 3.95782C4.58492 4.43346 4.50263 5.2287 4.96165 5.79124C5.42067 6.35378 6.9984 7.66671 6.9984 7.66671C6.9984 7.66671 8.57614 6.35378 9.03516 5.79124C9.49418 5.2287 9.42193 4.42846 8.82738 3.95782C8.23282 3.48719 7.46492 3.62191 6.9984 4.14133Z" stroke="#344054" stroke-width="1.5" stroke-linecap="round" stroke-linejoin="round"/>
</svg>
