<svg width="48" height="48" viewBox="0 0 48 48" fill="none" xmlns="http://www.w3.org/2000/svg">
<rect width="48" height="48" rx="10" fill="#7F56D9"/>
<path d="M20.9986 26C20.9986 26 22.3111 27.5 24.4986 27.5C26.6861 27.5 27.9986 26 27.9986 26M27.2486 21H27.2586M21.7486 21H21.7586M24.4986 32C29.1931 32 32.9986 28.1944 32.9986 23.5C32.9986 18.8056 29.1931 15 24.4986 15C19.8042 15 15.9986 18.8056 15.9986 23.5C15.9986 24.45 16.1545 25.3636 16.442 26.2166C16.5502 26.5376 16.6043 26.6981 16.6141 26.8214C16.6237 26.9432 16.6164 27.0286 16.5863 27.1469C16.5558 27.2668 16.4884 27.3915 16.3537 27.6408L14.7181 30.6684C14.4848 31.1002 14.3681 31.3161 14.3942 31.4828C14.417 31.6279 14.5024 31.7557 14.6278 31.8322C14.7718 31.9201 15.0159 31.8948 15.5042 31.8444L20.6252 31.315C20.7803 31.299 20.8578 31.291 20.9285 31.2937C20.998 31.2963 21.0471 31.3029 21.1149 31.3185C21.1838 31.3344 21.2705 31.3678 21.4438 31.4345C22.3919 31.7998 23.4219 32 24.4986 32ZM27.7486 21C27.7486 21.2761 27.5248 21.5 27.2486 21.5C26.9725 21.5 26.7486 21.2761 26.7486 21C26.7486 20.7239 26.9725 20.5 27.2486 20.5C27.5248 20.5 27.7486 20.7239 27.7486 21ZM22.2486 21C22.2486 21.2761 22.0248 21.5 21.7486 21.5C21.4725 21.5 21.2486 21.2761 21.2486 21C21.2486 20.7239 21.4725 20.5 21.7486 20.5C22.0248 20.5 22.2486 20.7239 22.2486 21Z" stroke="white" stroke-width="2" stroke-linecap="round" stroke-linejoin="round"/>
</svg>
