<svg width="48" height="48" viewBox="0 0 48 48" fill="none" xmlns="http://www.w3.org/2000/svg">
<rect width="48" height="48" rx="10" fill="#7F56D9"/>
<path d="M20.3803 20.8532C21.0763 22.3028 22.0251 23.6615 23.2266 24.8631C24.4282 26.0646 25.7869 27.0134 27.2365 27.7094C27.3612 27.7693 27.4235 27.7992 27.5024 27.8222C27.7828 27.904 28.127 27.8453 28.3644 27.6752C28.4313 27.6274 28.4884 27.5702 28.6027 27.4559C28.9523 27.1063 29.1271 26.9315 29.3029 26.8172C29.9658 26.3862 30.8204 26.3862 31.4833 26.8172C31.6591 26.9315 31.8339 27.1063 32.1835 27.4559L32.3783 27.6508C32.9098 28.1822 33.1755 28.448 33.3198 28.7333C33.6069 29.3009 33.6069 29.9712 33.3198 30.5387C33.1755 30.8241 32.9098 31.0898 32.3783 31.6213L32.2207 31.7789C31.6911 32.3085 31.4263 32.5733 31.0662 32.7756C30.6667 33 30.0462 33.1614 29.588 33.16C29.1751 33.1588 28.8928 33.0787 28.3284 32.9185C25.295 32.0575 22.4326 30.433 20.0447 28.045C17.6567 25.6571 16.0322 22.7947 15.1712 19.7613C15.011 19.1969 14.9309 18.9146 14.9297 18.5017C14.9283 18.0435 15.0897 17.423 15.3141 17.0235C15.5164 16.6634 15.7812 16.3986 16.3108 15.869L16.4684 15.7114C16.9999 15.1799 17.2656 14.9142 17.551 14.7699C18.1185 14.4828 18.7888 14.4828 19.3564 14.7699C19.6417 14.9142 19.9075 15.1799 20.4389 15.7114L20.6338 15.9062C20.9834 16.2559 21.1582 16.4307 21.2725 16.6064C21.7035 17.2693 21.7035 18.1239 21.2725 18.7868C21.1582 18.9626 20.9834 19.1374 20.6338 19.487C20.5195 19.6013 20.4623 19.6584 20.4145 19.7253C20.2445 19.9627 20.1858 20.307 20.2675 20.5873C20.2905 20.6662 20.3204 20.7285 20.3803 20.8532Z" stroke="white" stroke-width="2" stroke-linecap="round" stroke-linejoin="round"/>
</svg>
