<svg width="20" height="20" viewBox="0 0 20 20" fill="none" xmlns="http://www.w3.org/2000/svg">
<g clip-path="url(#clip0_6941_12627)">
<path d="M4.1665 12.5001C3.38993 12.5001 3.00165 12.5001 2.69536 12.3732C2.28698 12.2041 1.96253 11.8796 1.79337 11.4712C1.6665 11.1649 1.6665 10.7767 1.6665 10.0001V4.33341C1.6665 3.39999 1.6665 2.93328 1.84816 2.57676C2.00795 2.26316 2.26292 2.00819 2.57652 1.8484C2.93304 1.66675 3.39975 1.66675 4.33317 1.66675H9.99984C10.7764 1.66675 11.1647 1.66675 11.471 1.79362C11.8794 1.96277 12.2038 2.28723 12.373 2.69561C12.4998 3.00189 12.4998 3.39018 12.4998 4.16675M10.1665 18.3334H15.6665C16.5999 18.3334 17.0666 18.3334 17.4232 18.1518C17.7368 17.992 17.9917 17.737 18.1515 17.4234C18.3332 17.0669 18.3332 16.6002 18.3332 15.6667V10.1667C18.3332 9.23333 18.3332 8.76662 18.1515 8.4101C17.9917 8.09649 17.7368 7.84153 17.4232 7.68174C17.0666 7.50008 16.5999 7.50008 15.6665 7.50008H10.1665C9.23308 7.50008 8.76637 7.50008 8.40985 7.68174C8.09625 7.84153 7.84128 8.09649 7.68149 8.4101C7.49984 8.76662 7.49984 9.23333 7.49984 10.1667V15.6667C7.49984 16.6002 7.49984 17.0669 7.68149 17.4234C7.84128 17.737 8.09625 17.992 8.40985 18.1518C8.76637 18.3334 9.23308 18.3334 10.1665 18.3334Z" stroke="#667085" stroke-width="1.66667" stroke-linecap="round" stroke-linejoin="round"/>
</g>
<defs>
<clipPath id="clip0_6941_12627">
<rect width="20" height="20" fill="white"/>
</clipPath>
</defs>
</svg>
