<svg width="16" height="16" viewBox="0 0 16 16" fill="none" xmlns="http://www.w3.org/2000/svg">
<path d="M4.00016 13.3914H5.74036C5.96725 13.3914 6.19275 13.4184 6.4127 13.4724L8.25142 13.9192C8.65039 14.0164 9.06601 14.0259 9.46915 13.9476L11.5021 13.552C12.0392 13.4474 12.5332 13.1903 12.9204 12.8136L14.3588 11.4144C14.7695 11.0155 14.7695 10.3683 14.3588 9.96868C13.9889 9.60893 13.4033 9.56843 12.9849 9.87351L11.3086 11.0965C11.0685 11.272 10.7764 11.3665 10.4759 11.3665H8.85716L9.88754 11.3665C10.4683 11.3665 10.9387 10.9089 10.9387 10.3439V10.1394C10.9387 9.6703 10.6105 9.26128 10.1429 9.14788L8.55256 8.76113C8.29375 8.69836 8.0287 8.66664 7.76226 8.66664C7.11905 8.66664 5.95476 9.19918 5.95476 9.19918L4.00016 10.0166M1.3335 9.7333L1.3335 13.6C1.3335 13.9733 1.3335 14.16 1.40616 14.3026C1.47007 14.4281 1.57206 14.5301 1.6975 14.594C1.84011 14.6666 2.02679 14.6666 2.40016 14.6666H2.9335C3.30686 14.6666 3.49355 14.6666 3.63616 14.594C3.7616 14.5301 3.86358 14.4281 3.9275 14.3026C4.00016 14.16 4.00016 13.9733 4.00016 13.6V9.7333C4.00016 9.35994 4.00016 9.17325 3.9275 9.03064C3.86358 8.9052 3.7616 8.80322 3.63616 8.7393C3.49355 8.66664 3.30686 8.66664 2.9335 8.66664H2.40016C2.02679 8.66664 1.84011 8.66664 1.6975 8.7393C1.57206 8.80322 1.47007 8.9052 1.40616 9.03064C1.3335 9.17325 1.3335 9.35994 1.3335 9.7333ZM11.4611 2.39481C11.0632 1.56224 10.1459 1.12116 9.25379 1.54689C8.36169 1.97261 7.98163 2.98222 8.35513 3.86852C8.58597 4.41628 9.24733 5.47997 9.71889 6.21266C9.89313 6.48338 9.98024 6.61874 10.1075 6.69792C10.2166 6.76584 10.3533 6.80245 10.4818 6.79821C10.6315 6.79325 10.7747 6.71959 11.0609 6.57226C11.8357 6.17351 12.9403 5.58301 13.414 5.22405C14.1807 4.64325 14.3705 3.57569 13.7966 2.76413C13.2227 1.95257 12.2219 1.87272 11.4611 2.39481Z" stroke="#C01048" stroke-width="1.5" stroke-linecap="round" stroke-linejoin="round"/>
</svg>
