<svg width="16" height="16" viewBox="0 0 16 16" fill="none" xmlns="http://www.w3.org/2000/svg">
<path d="M10.3639 6.61699C10.6131 6.17406 10.821 5.77438 10.9492 5.47018C11.5717 3.99302 10.9562 2.29389 9.45145 1.60079C7.94674 0.907693 6.43577 1.62637 5.77264 3.01399C4.50454 2.14384 2.81295 2.27163 1.88009 3.62953C0.947224 4.98743 1.24 6.7614 2.51769 7.7294C3.09756 8.16873 4.2444 8.81617 5.32413 9.39234M10.865 7.83334C10.5836 6.32137 9.29707 5.2156 7.67725 5.51614C6.05744 5.81669 5.01008 7.27809 5.22906 8.86604C5.405 10.1418 6.37611 13.1352 6.7511 14.2627C6.80227 14.4166 6.82786 14.4935 6.87851 14.5471C6.92264 14.5939 6.98132 14.6277 7.04386 14.6426C7.11564 14.6596 7.19506 14.6433 7.35389 14.6107C8.51784 14.3717 11.5957 13.7161 12.7886 13.2305C14.2732 12.6262 15.0395 10.9895 14.4656 9.43537C13.8917 7.88128 12.3151 7.32105 10.865 7.83334Z" stroke="#C01048" stroke-width="1.5" stroke-linecap="round" stroke-linejoin="round"/>
</svg>
