<svg width="16" height="12" viewBox="0 0 16 12" fill="none" xmlns="http://www.w3.org/2000/svg">
<path d="M1.33325 2.66669L6.77653 6.47698C7.21731 6.78553 7.4377 6.9398 7.67743 6.99956C7.88918 7.05234 8.11066 7.05234 8.32241 6.99956C8.56213 6.9398 8.78252 6.78553 9.2233 6.47698L14.6666 2.66669M4.53325 11.3334H11.4666C12.5867 11.3334 13.1467 11.3334 13.5746 11.1154C13.9509 10.9236 14.2569 10.6177 14.4486 10.2413C14.6666 9.81351 14.6666 9.25346 14.6666 8.13335V3.86669C14.6666 2.74658 14.6666 2.18653 14.4486 1.75871C14.2569 1.38238 13.9509 1.07642 13.5746 0.884674C13.1467 0.666687 12.5867 0.666687 11.4666 0.666687H4.53325C3.41315 0.666687 2.85309 0.666687 2.42527 0.884674C2.04895 1.07642 1.74299 1.38238 1.55124 1.75871C1.33325 2.18653 1.33325 2.74658 1.33325 3.86669V8.13335C1.33325 9.25346 1.33325 9.81351 1.55124 10.2413C1.74299 10.6177 2.04895 10.9236 2.42527 11.1154C2.85309 11.3334 3.41315 11.3334 4.53325 11.3334Z" stroke="#667085" stroke-width="1.33333" stroke-linecap="round" stroke-linejoin="round"/>
</svg>
