<svg width="14" height="16" viewBox="0 0 14 16" fill="none" xmlns="http://www.w3.org/2000/svg">
<path d="M1 14.6667H7M6.33333 4.16806C6.75949 4.05838 7.20627 4.00004 7.66667 4.00004C10.6122 4.00004 13 6.38786 13 9.33337C13 11.5716 11.6212 13.4878 9.66667 14.279M2.66667 8.66671H5.33333C5.6431 8.66671 5.79799 8.66671 5.92679 8.69233C6.45571 8.79754 6.86917 9.211 6.97438 9.73992C7 9.86872 7 10.0236 7 10.3334C7 10.6431 7 10.798 6.97438 10.9268C6.86917 11.4557 6.45571 11.8692 5.92679 11.9744C5.79799 12 5.6431 12 5.33333 12H2.66667C2.3569 12 2.20201 12 2.07321 11.9744C1.54429 11.8692 1.13083 11.4557 1.02562 10.9268C1 10.798 1 10.6431 1 10.3334C1 10.0236 1 9.86872 1.02562 9.73992C1.13083 9.211 1.54429 8.79754 2.07321 8.69233C2.20201 8.66671 2.3569 8.66671 2.66667 8.66671ZM1.66667 3.66671V8.66671H6.33333V3.66671C6.33333 2.37804 5.28866 1.33337 4 1.33337C2.71134 1.33337 1.66667 2.37804 1.66667 3.66671Z" stroke="#344054" stroke-width="1.5" stroke-linecap="round" stroke-linejoin="round"/>
</svg>
