<svg width="14" height="14" viewBox="0 0 14 14" fill="none" xmlns="http://www.w3.org/2000/svg">
<path d="M1 4.2C1 3.0799 1 2.51984 1.21799 2.09202C1.40973 1.71569 1.71569 1.40973 2.09202 1.21799C2.51984 1 3.0799 1 4.2 1H9.8C10.9201 1 11.4802 1 11.908 1.21799C12.2843 1.40973 12.5903 1.71569 12.782 2.09202C13 2.51984 13 3.0799 13 4.2V9.8C13 10.9201 13 11.4802 12.782 11.908C12.5903 12.2843 12.2843 12.5903 11.908 12.782C11.4802 13 10.9201 13 9.8 13H4.2C3.0799 13 2.51984 13 2.09202 12.782C1.71569 12.5903 1.40973 12.2843 1.21799 11.908C1 11.4802 1 10.9201 1 9.8V4.2Z" stroke="#344054" stroke-width="1.5" stroke-linecap="round" stroke-linejoin="round"/>
<path fill-rule="evenodd" clip-rule="evenodd" d="M6.99772 5.04527C6.33127 4.26613 5.21992 4.05655 4.3849 4.77C3.54988 5.48346 3.43232 6.67633 4.08807 7.52013C4.50807 8.0606 5.58372 9.06283 6.30282 9.71357C6.54179 9.92983 6.66127 10.038 6.80439 10.0813C6.92742 10.1186 7.06801 10.1186 7.19104 10.0813C7.33416 10.038 7.45364 9.92983 7.69261 9.71357C8.41171 9.06283 9.48736 8.0606 9.90737 7.52013C10.5631 6.67633 10.4599 5.47596 9.61054 4.77C8.76117 4.06405 7.66417 4.26613 6.99772 5.04527Z" stroke="#344054" stroke-width="1.5" stroke-linecap="round" stroke-linejoin="round"/>
</svg>
