<svg width="16" height="14" viewBox="0 0 16 14" fill="none" xmlns="http://www.w3.org/2000/svg">
<path d="M6.00016 6.33333L7.3335 7.66667L10.3335 4.66667M7.9956 2.42388C6.6627 0.8656 4.43999 0.446428 2.76996 1.87334C1.09993 3.30026 0.864808 5.68598 2.17629 7.3736C3.16689 8.64829 5.98103 11.2073 7.29884 12.3833C7.54109 12.5994 7.66221 12.7075 7.80405 12.7501C7.92718 12.787 8.06401 12.787 8.18715 12.7501C8.32898 12.7075 8.45011 12.5994 8.69236 12.3833C10.0102 11.2073 12.8243 8.64829 13.8149 7.3736C15.1264 5.68598 14.92 3.28525 13.2212 1.87334C11.5225 0.461438 9.3285 0.8656 7.9956 2.42388Z" stroke="#344054" stroke-width="1.5" stroke-linecap="round" stroke-linejoin="round"/>
</svg>
