<svg width="14" height="16" viewBox="0 0 14 16" fill="none" xmlns="http://www.w3.org/2000/svg">
<path d="M12.3332 8.33337V4.53337C12.3332 3.41327 12.3332 2.85322 12.1152 2.42539C11.9234 2.04907 11.6175 1.74311 11.2412 1.55136C10.8133 1.33337 10.2533 1.33337 9.13317 1.33337H4.8665C3.7464 1.33337 3.18635 1.33337 2.75852 1.55136C2.3822 1.74311 2.07624 2.04907 1.88449 2.42539C1.6665 2.85322 1.6665 3.41327 1.6665 4.53337V11.4667C1.6665 12.5868 1.6665 13.1469 1.88449 13.5747C2.07624 13.951 2.3822 14.257 2.75852 14.4487C3.18635 14.6667 3.74637 14.6667 4.86641 14.6667H7.33317M8.33317 7.33337H4.33317M5.6665 10H4.33317M9.6665 4.66671H4.33317M8.99984 12.6667L10.9998 14.6667M10.9998 14.6667L12.9998 12.6667M10.9998 14.6667V10.6667" stroke="#344054" stroke-width="1.5" stroke-linecap="round" stroke-linejoin="round"/>
</svg>
