<svg width="20" height="20" viewBox="0 0 20 20" fill="none" xmlns="http://www.w3.org/2000/svg">
<path d="M11.7079 5.00008C12.5218 5.15889 13.2699 5.55696 13.8563 6.14336C14.4427 6.72976 14.8407 7.4778 14.9996 8.29175M11.7079 1.66675C13.399 1.85461 14.9759 2.61189 16.1798 3.81425C17.3836 5.01662 18.1429 6.59259 18.3329 8.28341M8.52204 11.5526C7.52072 10.5513 6.73007 9.41912 6.15007 8.21111C6.10018 8.1072 6.07523 8.05524 6.05607 7.9895C5.98797 7.75587 6.03689 7.46899 6.17856 7.27113C6.21843 7.21546 6.26606 7.16783 6.36132 7.07257C6.65266 6.78123 6.79833 6.63556 6.89356 6.48908C7.25273 5.93667 7.25273 5.22452 6.89356 4.67211C6.79833 4.52563 6.65266 4.37996 6.36132 4.08862L6.19893 3.92623C5.75606 3.48336 5.53462 3.26192 5.29681 3.14164C4.82384 2.90241 4.26529 2.90241 3.79232 3.14164C3.5545 3.26192 3.33307 3.48336 2.8902 3.92623L2.75883 4.05759C2.31748 4.49894 2.09681 4.71962 1.92827 5.01964C1.74125 5.35257 1.60678 5.86964 1.60792 6.25149C1.60894 6.59562 1.67569 6.8308 1.8092 7.30117C2.52668 9.82901 3.8804 12.2143 5.87039 14.2043C7.86037 16.1943 10.2457 17.548 12.7735 18.2655C13.2439 18.399 13.4791 18.4657 13.8232 18.4668C14.205 18.4679 14.7221 18.3334 15.055 18.1464C15.3551 17.9779 15.5757 17.7572 16.0171 17.3158L16.1484 17.1845C16.5913 16.7416 16.8128 16.5202 16.933 16.2824C17.1723 15.8094 17.1723 15.2508 16.933 14.7779C16.8128 14.5401 16.5913 14.3186 16.1484 13.8758L15.9861 13.7134C15.6947 13.422 15.549 13.2764 15.4026 13.1811C14.8502 12.8219 14.138 12.822 13.5856 13.1811C13.4391 13.2764 13.2934 13.422 13.0021 13.7134C12.9069 13.8086 12.8592 13.8562 12.8035 13.8961C12.6057 14.0378 12.3188 14.0867 12.0852 14.0186C12.0194 13.9994 11.9675 13.9745 11.8636 13.9246C10.6556 13.3446 9.52335 12.554 8.52204 11.5526Z" stroke="#667085" stroke-width="1.66667" stroke-linecap="round" stroke-linejoin="round"/>
</svg>
