<svg width="14" height="14" viewBox="0 0 14 14" fill="none" xmlns="http://www.w3.org/2000/svg">
<path d="M12.3332 13C12.3332 12.0696 12.3332 11.6044 12.2183 11.2259C11.9598 10.3736 11.2929 9.70669 10.4406 9.44816C10.0621 9.33333 9.59688 9.33333 8.6665 9.33333H5.33317C4.4028 9.33333 3.93761 9.33333 3.55908 9.44816C2.70681 9.70669 2.03986 10.3736 1.78133 11.2259C1.6665 11.6044 1.6665 12.0696 1.6665 13M9.99984 4C9.99984 5.65685 8.65669 7 6.99984 7C5.34298 7 3.99984 5.65685 3.99984 4C3.99984 2.34315 5.34298 1 6.99984 1C8.65669 1 9.99984 2.34315 9.99984 4Z" stroke="#344054" stroke-width="1.5" stroke-linecap="round" stroke-linejoin="round"/>
</svg>
