<svg width="14" height="15" viewBox="0 0 14 15" fill="none" xmlns="http://www.w3.org/2000/svg">
<path d="M7 10.6667C8.10457 10.6667 9 9.77123 9 8.66666C9 7.56209 8.10457 6.66666 7 6.66666C5.89543 6.66666 5 7.56209 5 8.66666C5 9.77123 5.89543 10.6667 7 10.6667Z" stroke="#344054" stroke-width="1.5" stroke-linecap="round" stroke-linejoin="round"/>
<path d="M1 7.04337C1 6.66046 1 6.46901 1.04935 6.2927C1.09307 6.13652 1.16491 5.98963 1.26135 5.85924C1.37022 5.71204 1.52135 5.5945 1.82359 5.35942L6.34513 1.84267C6.57935 1.6605 6.69646 1.56941 6.82577 1.5344C6.93987 1.50351 7.06013 1.50351 7.17423 1.5344C7.30354 1.56941 7.42065 1.6605 7.65487 1.84267L12.1764 5.35942C12.4787 5.5945 12.6298 5.71204 12.7386 5.85924C12.8351 5.98963 12.9069 6.13652 12.9506 6.2927C13 6.46901 13 6.66046 13 7.04337V11.8667C13 12.6134 13 12.9868 12.8547 13.272C12.7268 13.5229 12.5229 13.7268 12.272 13.8547C11.9868 14 11.6134 14 10.8667 14H3.13333C2.3866 14 2.01323 14 1.72801 13.8547C1.47713 13.7268 1.27316 13.5229 1.14532 13.272C1 12.9868 1 12.6134 1 11.8667V7.04337Z" stroke="#344054" stroke-width="1.5" stroke-linecap="round" stroke-linejoin="round"/>
</svg>
