<svg width="16" height="16" viewBox="0 0 16 16" fill="none" xmlns="http://www.w3.org/2000/svg">
<path d="M6.05992 5.94007C6.21665 5.49452 6.52602 5.11881 6.93322 4.8795C7.34042 4.64018 7.81918 4.5527 8.2847 4.63255C8.75022 4.7124 9.17246 4.95442 9.47664 5.31576C9.78081 5.67709 9.94729 6.13442 9.94659 6.60674C9.94659 7.94007 7.94659 8.60674 7.94659 8.60674M7.99992 11.2734H8.00659M14.6666 7.94007C14.6666 11.622 11.6818 14.6067 7.99992 14.6067C4.31802 14.6067 1.33325 11.622 1.33325 7.94007C1.33325 4.25818 4.31802 1.27341 7.99992 1.27341C11.6818 1.27341 14.6666 4.25818 14.6666 7.94007Z" stroke="#98A2B3" stroke-width="1.33333" stroke-linecap="round" stroke-linejoin="round"/>
</svg>
