<svg width="14" height="13" viewBox="0 0 14 13" fill="none" xmlns="http://www.w3.org/2000/svg">
<path d="M6.37159 0.984965C6.54239 0.574319 7.12411 0.574318 7.29491 0.984964L8.69975 4.36259C8.77175 4.5357 8.93455 4.65399 9.12145 4.66897L12.7679 4.96131C13.2112 4.99685 13.391 5.5501 13.0532 5.83944L10.275 8.21925C10.1326 8.34123 10.0704 8.53262 10.1139 8.715L10.9627 12.2733C11.0659 12.7059 10.5953 13.0478 10.2157 12.816L7.09388 10.9092C6.93387 10.8115 6.73263 10.8115 6.57262 10.9092L3.45077 12.816C3.07122 13.0478 2.6006 12.7059 2.70379 12.2733L3.55258 8.715C3.59608 8.53262 3.53389 8.34123 3.3915 8.21925L0.613306 5.83944C0.275538 5.5501 0.4553 4.99685 0.898627 4.96131L4.54505 4.66897C4.73195 4.65399 4.89476 4.5357 4.96676 4.36259L6.37159 0.984965Z" fill="#6941C6"/>
</svg>
