<svg width="16" height="14" viewBox="0 0 16 14" fill="none" xmlns="http://www.w3.org/2000/svg">
<path d="M7.52193 1.30217C7.67559 0.990877 7.75242 0.835231 7.85672 0.785502C7.94746 0.742235 8.05289 0.742235 8.14363 0.785502C8.24793 0.835231 8.32476 0.990877 8.47842 1.30217L9.9362 4.25548C9.98157 4.34738 10.0042 4.39333 10.0374 4.42901C10.0667 4.4606 10.1019 4.48619 10.141 4.50437C10.1852 4.52491 10.2359 4.53232 10.3373 4.54714L13.5982 5.02376C13.9415 5.07395 14.1132 5.09905 14.1927 5.18292C14.2618 5.25589 14.2943 5.35616 14.2812 5.45581C14.266 5.57035 14.1417 5.69141 13.8931 5.93355L11.5345 8.23091C11.4609 8.30252 11.4242 8.33833 11.4004 8.38093C11.3794 8.41866 11.366 8.4601 11.3608 8.50296C11.3549 8.55137 11.3636 8.60196 11.3809 8.70312L11.9375 11.948C11.9962 12.2903 12.0255 12.4614 11.9704 12.563C11.9224 12.6513 11.8371 12.7133 11.7382 12.7316C11.6246 12.7527 11.4709 12.6719 11.1636 12.5102L8.24841 10.9772C8.15758 10.9294 8.11217 10.9055 8.06432 10.8961C8.02196 10.8878 7.97839 10.8878 7.93602 10.8961C7.88818 10.9055 7.84276 10.9294 7.75193 10.9772L4.83678 12.5102C4.52944 12.6719 4.37577 12.7527 4.26214 12.7316C4.16328 12.7133 4.07798 12.6513 4.02999 12.563C3.97483 12.4614 4.00418 12.2903 4.06288 11.948L4.61942 8.70312C4.63677 8.60196 4.64545 8.55137 4.63958 8.50296C4.63438 8.4601 4.6209 8.41866 4.5999 8.38093C4.57618 8.33833 4.53941 8.30252 4.46589 8.2309L2.1072 5.93355C1.8586 5.69141 1.73431 5.57035 1.71918 5.45581C1.70602 5.35616 1.73853 5.25589 1.80766 5.18292C1.88712 5.09905 2.05881 5.07395 2.40219 5.02376L5.66304 4.54714C5.76445 4.53232 5.81515 4.52491 5.85931 4.50437C5.89841 4.48619 5.9336 4.4606 5.96295 4.42901C5.9961 4.39333 6.01878 4.34738 6.06415 4.25548L7.52193 1.30217Z" stroke="#344054" stroke-width="1.5" stroke-linecap="round" stroke-linejoin="round"/>
</svg>
