<svg width="16" height="14" viewBox="0 0 16 14" fill="none" xmlns="http://www.w3.org/2000/svg">
<path d="M8.00016 13L7.93346 12.8999C7.47037 12.2053 7.23882 11.858 6.9329 11.6065C6.66207 11.3839 6.35001 11.2169 6.01457 11.1151C5.63566 11 5.21823 11 4.38338 11H3.46683C2.72009 11 2.34672 11 2.06151 10.8547C1.81063 10.7268 1.60665 10.5229 1.47882 10.272C1.3335 9.98677 1.3335 9.6134 1.3335 8.86667V3.13333C1.3335 2.3866 1.3335 2.01323 1.47882 1.72801C1.60665 1.47713 1.81063 1.27316 2.06151 1.14532C2.34672 1 2.72009 1 3.46683 1H3.7335C5.22697 1 5.97371 1 6.54414 1.29065C7.0459 1.54631 7.45385 1.95426 7.70951 2.45603C8.00016 3.02646 8.00016 3.77319 8.00016 5.26667M8.00016 13V5.26667M8.00016 13L8.06687 12.8999C8.52996 12.2053 8.76151 11.858 9.06743 11.6065C9.33826 11.3839 9.65032 11.2169 9.98576 11.1151C10.3647 11 10.7821 11 11.6169 11H12.5335C13.2802 11 13.6536 11 13.9388 10.8547C14.1897 10.7268 14.3937 10.5229 14.5215 10.272C14.6668 9.98677 14.6668 9.6134 14.6668 8.86667V3.13333C14.6668 2.3866 14.6668 2.01323 14.5215 1.72801C14.3937 1.47713 14.1897 1.27316 13.9388 1.14532C13.6536 1 13.2802 1 12.5335 1H12.2668C10.7734 1 10.0266 1 9.45619 1.29065C8.95442 1.54631 8.54647 1.95426 8.29081 2.45603C8.00016 3.02646 8.00016 3.77319 8.00016 5.26667" stroke="#344054" stroke-width="1.5" stroke-linecap="round" stroke-linejoin="round"/>
</svg>
