<svg width="16" height="16" viewBox="0 0 16 16" fill="none" xmlns="http://www.w3.org/2000/svg">
<path d="M8.00016 10C5.79102 10 4.00016 8.20918 4.00016 6.00004V2.29634C4.00016 2.02044 4.00016 1.88249 4.04037 1.77203C4.10777 1.58685 4.25364 1.44098 4.43882 1.37358C4.54928 1.33337 4.68723 1.33337 4.96313 1.33337H11.0372C11.3131 1.33337 11.451 1.33337 11.5615 1.37358C11.7467 1.44098 11.8926 1.58685 11.96 1.77203C12.0002 1.88249 12.0002 2.02044 12.0002 2.29634V6.00004C12.0002 8.20918 10.2093 10 8.00016 10ZM8.00016 10V12M12.0002 2.66671H13.6668C13.9775 2.66671 14.1328 2.66671 14.2553 2.71745C14.4186 2.78512 14.5484 2.9149 14.6161 3.07825C14.6668 3.20077 14.6668 3.35608 14.6668 3.66671V4.00004C14.6668 4.62002 14.6668 4.93001 14.5987 5.18435C14.4137 5.87453 13.8747 6.41362 13.1845 6.59856C12.9301 6.66671 12.6201 6.66671 12.0002 6.66671M4.00016 2.66671H2.3335C2.02287 2.66671 1.86755 2.66671 1.74504 2.71745C1.58169 2.78512 1.45191 2.9149 1.38424 3.07825C1.3335 3.20077 1.3335 3.35608 1.3335 3.66671V4.00004C1.3335 4.62002 1.3335 4.93001 1.40164 5.18435C1.58658 5.87453 2.12567 6.41362 2.81586 6.59856C3.07019 6.66671 3.38018 6.66671 4.00016 6.66671M4.96313 14.6667H11.0372C11.2008 14.6667 11.3335 14.5341 11.3335 14.3704C11.3335 13.0613 10.2722 12 8.96313 12H7.0372C5.72808 12 4.66683 13.0613 4.66683 14.3704C4.66683 14.5341 4.79949 14.6667 4.96313 14.6667Z" stroke="#344054" stroke-width="1.5" stroke-linecap="round" stroke-linejoin="round"/>
</svg>
