<svg width="16" height="16" viewBox="0 0 16 16" fill="none" xmlns="http://www.w3.org/2000/svg">
<path d="M5.64313 5.64303L3.28612 3.28601M3.28612 12.7141L5.64315 10.3571M10.3572 10.3571L12.7142 12.7141M12.7142 3.28598L10.3572 5.64301M14.6668 8.00004C14.6668 11.6819 11.6821 14.6667 8.00016 14.6667C4.31826 14.6667 1.3335 11.6819 1.3335 8.00004C1.3335 4.31814 4.31826 1.33337 8.00016 1.33337C11.6821 1.33337 14.6668 4.31814 14.6668 8.00004ZM11.3335 8.00004C11.3335 9.84099 9.84111 11.3334 8.00016 11.3334C6.15921 11.3334 4.66683 9.84099 4.66683 8.00004C4.66683 6.15909 6.15921 4.66671 8.00016 4.66671C9.84111 4.66671 11.3335 6.15909 11.3335 8.00004Z" stroke="#344054" stroke-width="1.5" stroke-linecap="round" stroke-linejoin="round"/>
</svg>
