<svg width="16" height="14" viewBox="0 0 16 14" fill="none" xmlns="http://www.w3.org/2000/svg">
<path d="M8.66683 3.66667H3.46683C2.72009 3.66667 2.34672 3.66667 2.06151 3.81199C1.81063 3.93982 1.60665 4.1438 1.47882 4.39468C1.3335 4.67989 1.3335 5.05326 1.3335 5.8V8.2C1.3335 8.94674 1.3335 9.3201 1.47882 9.60532C1.60665 9.8562 1.81063 10.0602 2.06151 10.188C2.34672 10.3333 2.72009 10.3333 3.46683 10.3333H8.66683M11.3335 3.66667H12.5335C13.2802 3.66667 13.6536 3.66667 13.9388 3.81199C14.1897 3.93982 14.3937 4.1438 14.5215 4.39468C14.6668 4.67989 14.6668 5.05326 14.6668 5.8V8.2C14.6668 8.94674 14.6668 9.3201 14.5215 9.60532C14.3937 9.8562 14.1897 10.0602 13.9388 10.188C13.6536 10.3333 13.2802 10.3333 12.5335 10.3333H11.3335M11.3335 13L11.3335 1M13.0002 1.00001L9.66683 1M13.0002 13L9.66683 13" stroke="#344054" stroke-width="1.5" stroke-linecap="round" stroke-linejoin="round"/>
</svg>
