<svg width="68" height="152" viewBox="0 0 68 152" fill="none" xmlns="http://www.w3.org/2000/svg">
<path d="M10.5243 144.044C9.11844 144.92 8.68958 146.771 9.56639 148.177C10.4432 149.583 12.2937 150.011 13.6995 149.135L10.5243 144.044ZM9.72156 60.2432L6.72838 60.0409L6.72832 60.0418L9.72156 60.2432ZM58.355 76.13L56.205 74.0377L56.2047 74.038L58.355 76.13ZM3.4577 0.135137C1.80172 0.08133 0.415671 1.38016 0.361863 3.03614C0.308059 4.69212 1.60688 6.07817 3.26286 6.13198L3.4577 0.135137ZM22.8514 151.759C24.4957 151.963 25.9939 150.795 26.1979 149.151C26.4019 147.507 25.2343 146.009 23.59 145.805L22.8514 151.759ZM11.1461 147.284L8.15257 147.086C8.04785 148.673 9.19896 150.065 10.7768 150.261L11.1461 147.284ZM14.6805 135.233C14.6113 133.578 13.2133 132.292 11.5579 132.361C9.90244 132.43 8.61653 133.828 8.68568 135.484L14.6805 135.233ZM12.1119 146.589C13.6995 149.135 13.7004 149.134 13.7015 149.133C13.7021 149.133 13.7034 149.132 13.7047 149.131C13.7071 149.13 13.7104 149.128 13.7144 149.125C13.7224 149.12 13.7334 149.113 13.7474 149.105C13.7753 149.087 13.8152 149.062 13.8664 149.029C13.969 148.964 14.1174 148.869 14.3083 148.744C14.6901 148.496 15.2424 148.131 15.9387 147.657C17.3308 146.708 19.3012 145.319 21.6387 143.541C26.3066 139.991 32.4729 134.866 38.4267 128.583C50.1705 116.19 61.845 98.4791 57.9552 79.1165L52.0727 80.2982C55.346 96.5918 45.5694 112.322 34.0715 124.456C28.4043 130.436 22.5021 135.346 18.0066 138.765C15.7623 140.472 13.8774 141.801 12.5596 142.699C11.9009 143.148 11.3845 143.489 11.0365 143.715C10.8625 143.828 10.7306 143.913 10.6441 143.968C10.6009 143.995 10.569 144.015 10.5489 144.028C10.5389 144.034 10.5317 144.039 10.5276 144.042C10.5255 144.043 10.5242 144.044 10.5237 144.044C10.5234 144.044 10.5235 144.044 10.5234 144.044C10.5237 144.044 10.5243 144.044 12.1119 146.589ZM57.9552 79.1165C54.1509 60.1791 42.2403 50.4537 30.7492 47.8152C25.0813 46.5137 19.4363 46.9275 14.9981 48.9398C10.5132 50.9734 7.08426 54.7733 6.72838 60.0409L12.7147 60.4454C12.8872 57.893 14.4886 55.7588 17.4758 54.4043C20.5098 53.0286 24.7788 52.6004 29.4065 53.663C38.5067 55.7526 48.7141 63.5793 52.0727 80.2982L57.9552 79.1165ZM6.72832 60.0418C6.40017 64.9198 8.46951 69.8553 11.6999 74.0371C14.9578 78.2544 19.5864 81.9679 24.9002 84.4503C35.5901 89.4443 49.4609 89.5735 60.5052 78.222L56.2047 74.038C47.3189 83.171 36.3471 83.1755 27.4398 79.0143C22.955 76.9192 19.0964 73.7973 16.4482 70.3692C13.7726 66.9055 12.517 63.3852 12.7148 60.4445L6.72832 60.0418ZM60.5049 78.2223C66.2492 72.3197 68.2311 64.3358 67.4397 56.0059C66.6509 47.7021 63.1093 38.8751 57.5607 30.7985C46.4777 14.666 26.9346 0.897923 3.4577 0.135137L3.26286 6.13198C24.4722 6.82108 42.3904 19.3125 52.6153 34.196C57.7205 41.6273 60.7944 49.4973 61.4666 56.5733C62.1363 63.6231 60.4248 69.7016 56.205 74.0377L60.5049 78.2223ZM23.59 145.805L11.5154 144.307L10.7768 150.261L22.8514 151.759L23.59 145.805ZM11.1461 147.284C14.1395 147.482 14.1395 147.482 14.1396 147.481C14.1396 147.481 14.1396 147.481 14.1396 147.481C14.1396 147.481 14.1396 147.48 14.1397 147.48C14.1398 147.478 14.1399 147.476 14.14 147.474C14.1404 147.469 14.1408 147.462 14.1414 147.453C14.1427 147.434 14.1445 147.406 14.1468 147.371C14.1515 147.299 14.1583 147.194 14.167 147.059C14.1842 146.79 14.2088 146.403 14.2379 145.932C14.2961 144.991 14.3728 143.71 14.4465 142.355C14.5892 139.732 14.7365 136.574 14.6805 135.233L8.68568 135.484C8.72664 136.464 8.60543 139.27 8.45535 142.029C8.38269 143.365 8.30695 144.63 8.24932 145.562C8.22052 146.028 8.19629 146.409 8.17927 146.675C8.17076 146.807 8.16406 146.911 8.1595 146.981C8.15722 147.016 8.15548 147.042 8.15431 147.06C8.15372 147.069 8.15328 147.076 8.15299 147.08C8.15285 147.082 8.15274 147.084 8.15267 147.085C8.15263 147.085 8.15261 147.086 8.15259 147.086C8.15258 147.086 8.15258 147.086 8.15258 147.086C8.15257 147.086 8.15257 147.086 11.1461 147.284Z" fill="#6941C6"/>
</svg>
