<svg width="67" height="156" viewBox="0 0 67 156" fill="none" xmlns="http://www.w3.org/2000/svg">
<path d="M3.07623 9.48808C1.60835 8.71965 1.04134 6.90675 1.80978 5.43887C2.57822 3.97099 4.39111 3.40398 5.85899 4.17242L3.07623 9.48808ZM7.9893 94.4036L5.0164 94.8059L5.01628 94.8051L7.9893 94.4036ZM55.6034 74.2189L53.6073 76.4585L53.607 76.4583L55.6034 74.2189ZM5.88146 155.708C4.23591 155.902 2.74525 154.724 2.55195 153.079C2.35866 151.433 3.53595 149.943 5.18149 149.749L5.88146 155.708ZM14.8212 0.737838C16.4422 0.394985 18.0342 1.43112 18.3771 3.05212C18.7199 4.67311 17.6838 6.26512 16.0628 6.60797L14.8212 0.737838ZM3.45282 6.20871L0.479302 6.60648C0.271254 5.0512 1.29686 3.59835 2.83203 3.27365L3.45282 6.20871ZM7.80653 18.1515C7.85004 19.8078 6.54263 21.1857 4.88635 21.2292C3.23006 21.2727 1.85211 19.9653 1.8086 18.309L7.80653 18.1515ZM4.46761 6.83025C5.85899 4.17242 5.85995 4.17292 5.86111 4.17353C5.86177 4.17387 5.86313 4.17459 5.86444 4.17527C5.86705 4.17665 5.87046 4.17844 5.87465 4.18065C5.88304 4.18506 5.89458 4.19115 5.90923 4.1989C5.93851 4.21441 5.98019 4.23657 6.03386 4.26531C6.14119 4.3228 6.29647 4.40664 6.49636 4.51628C6.89609 4.73555 7.47444 5.05817 8.2046 5.47972C9.66446 6.32259 11.7337 7.5625 14.1972 9.1644C19.1166 12.3634 25.6451 17.0299 32.0402 22.8866C44.6647 34.4484 57.5521 51.3798 54.9879 71.265L49.0372 70.4977C51.2035 53.698 40.3184 38.6039 27.9878 27.3114C21.9053 21.7409 15.6606 17.273 10.9263 14.1944C8.56283 12.6576 6.58503 11.4729 5.20456 10.6759C4.51455 10.2775 3.97442 9.97631 3.61071 9.7768C3.42887 9.67706 3.2912 9.60275 3.20099 9.55444C3.1559 9.53028 3.12267 9.51263 3.10174 9.50155C3.09127 9.496 3.08388 9.49211 3.07961 9.48986C3.07748 9.48874 3.07612 9.48802 3.07556 9.48773C3.07528 9.48758 3.07545 9.48767 3.0753 9.48759C3.07567 9.48779 3.07623 9.48808 4.46761 6.83025ZM54.9879 71.265C52.4815 90.7023 41.2539 101.521 29.9437 105.157C24.3623 106.951 18.6749 107.013 14.0787 105.346C9.42313 103.659 5.73123 100.088 5.0164 94.8059L10.9622 94.0013C11.3122 96.5874 13.0643 98.5965 16.1236 99.7056C19.2423 100.836 23.5406 100.912 28.1076 99.4445C37.0939 96.556 46.8131 87.7454 49.0372 70.4977L54.9879 71.265ZM5.01628 94.8051C4.35682 89.9215 6.08093 84.7786 9.01857 80.2908C11.9817 75.764 16.3507 71.6247 21.4939 68.6685C31.8345 62.7248 45.7345 61.4018 57.5997 71.9796L53.607 76.4583C44.1104 67.9921 33.141 68.8944 24.4839 73.8704C20.1282 76.374 16.4662 79.8683 14.0387 83.5768C11.5857 87.3243 10.5594 91.0186 10.9623 94.0021L5.01628 94.8051ZM57.5994 71.9794C63.767 77.4764 66.2896 85.3867 66.0684 93.858C65.8478 102.308 62.9124 111.521 57.9172 120.149C47.9418 137.378 29.3369 152.953 5.88146 155.708L5.18149 149.749C26.3762 147.26 43.4869 133.098 52.7247 117.143C57.336 109.178 59.8816 100.937 60.0705 93.7014C60.2588 86.4869 58.1193 80.4799 53.6073 76.4585L57.5994 71.9794ZM16.0628 6.60797L4.07361 9.14378L2.83203 3.27365L14.8212 0.737838L16.0628 6.60797ZM3.45282 6.20871C6.42633 5.81095 6.42634 5.81102 6.42635 5.81113C6.42637 5.81122 6.42639 5.81137 6.42641 5.81154C6.42645 5.81188 6.42652 5.81238 6.42661 5.81301C6.42678 5.81428 6.42702 5.81614 6.42735 5.81857C6.428 5.82343 6.42895 5.83059 6.4302 5.83998C6.43271 5.85876 6.4364 5.88647 6.4412 5.9226C6.4508 5.99485 6.46485 6.10077 6.48272 6.23621C6.51845 6.50707 6.5695 6.89612 6.63092 7.37016C6.7537 8.31776 6.91823 9.6072 7.08486 10.9721C7.40764 13.616 7.77088 16.7945 7.80653 18.1515L1.8086 18.309C1.78233 17.3091 1.4682 14.4769 1.12908 11.6992C0.964771 10.3533 0.802218 9.07931 0.680658 8.14113C0.619909 7.67228 0.56947 7.28787 0.53426 7.02098C0.516656 6.88755 0.502864 6.78353 0.493498 6.71306C0.488816 6.67782 0.48524 6.65098 0.482848 6.63304C0.481652 6.62407 0.480752 6.61733 0.480158 6.61288C0.479861 6.61066 0.47964 6.60901 0.479497 6.60794C0.479425 6.6074 0.479373 6.60701 0.479341 6.60677C0.479324 6.60665 0.479315 6.60657 0.479307 6.60651C0.479302 6.60648 0.479302 6.60648 3.45282 6.20871Z" fill="#6941C6"/>
</svg>
