<svg width="179" height="88" viewBox="0 0 179 88" fill="none" xmlns="http://www.w3.org/2000/svg">
<path d="M167.606 84.4821C168.21 86.0247 169.951 86.7851 171.494 86.1805C173.036 85.5758 173.797 83.8351 173.192 82.2926L167.606 84.4821ZM70.6913 67.6618L69.9445 70.5674L69.9453 70.5676L70.6913 67.6618ZM99.3464 15.1892L96.8959 16.9198L96.8961 16.9201L99.3464 15.1892ZM0.791666 62.1079C0.435617 63.726 1.45874 65.3264 3.07689 65.6825C4.69504 66.0385 6.29545 65.0154 6.65148 63.3972L0.791666 62.1079ZM178.154 72.0024C178.655 70.4233 177.782 68.7366 176.202 68.2351C174.623 67.7335 172.937 68.6071 172.435 70.1862L178.154 72.0024ZM170.991 84.6456L170.248 87.5523C171.789 87.9457 173.369 87.0689 173.85 85.5536L170.991 84.6456ZM157.831 78.5078C156.191 78.2728 154.671 79.4118 154.436 81.0519C154.201 82.692 155.34 84.2121 156.98 84.4472L157.831 78.5078ZM170.399 83.3873C173.192 82.2926 173.192 82.2915 173.191 82.2902C173.191 82.2895 173.19 82.288 173.19 82.2865C173.188 82.2835 173.187 82.2795 173.185 82.2745C173.181 82.2646 173.176 82.2509 173.169 82.2333C173.155 82.1981 173.134 82.1477 173.108 82.0826C173.056 81.9523 172.979 81.763 172.878 81.5186C172.675 81.03 172.376 80.3209 171.981 79.4229C171.192 77.6276 170.021 75.0747 168.483 72.0179C165.412 65.9122 160.857 57.757 154.933 49.6015C143.226 33.483 125.512 16.4702 102.699 16.793L102.784 22.7924C122.466 22.5139 138.581 37.2984 150.079 53.1276C155.757 60.9459 160.149 68.8021 163.123 74.7144C164.608 77.6665 165.735 80.1243 166.488 81.8373C166.865 82.6935 167.147 83.363 167.334 83.8145C167.428 84.0401 167.497 84.2113 167.543 84.3239C167.565 84.3802 167.582 84.4218 167.592 84.4484C167.598 84.4616 167.601 84.4711 167.604 84.4768C167.605 84.4796 167.605 84.4815 167.606 84.4824C167.606 84.4828 167.606 84.4828 167.606 84.483C167.606 84.4827 167.606 84.4821 170.399 83.3873ZM102.699 16.793C80.3202 17.1096 66.783 28.6004 61.3759 41.0475C58.7041 47.1981 57.9942 53.6579 59.3255 59.0609C60.6691 64.5137 64.1912 69.0887 69.9445 70.5674L71.438 64.7562C68.3205 63.955 66.1015 61.4815 65.1513 57.6254C64.1888 53.7194 64.6326 48.6097 66.8791 43.4381C71.3088 33.2409 82.6676 23.077 102.784 22.7924L102.699 16.793ZM69.9453 70.5676C75.3206 71.9474 81.3035 70.6715 86.7307 67.8898C92.1978 65.0877 97.3931 60.6193 101.337 55.1084C109.264 44.0309 112.324 28.3615 101.797 13.4583L96.8961 16.9201C105.638 29.2953 103.24 42.1391 96.4576 51.6166C93.0464 56.3833 88.5736 60.203 83.9939 62.5503C79.3743 64.9181 74.9317 65.653 71.4372 64.756L69.9453 70.5676ZM101.797 13.4586C96.351 5.74726 87.7566 1.81424 78.1256 0.951016C68.5209 0.090142 57.7091 2.24651 47.3038 6.86631C26.5162 16.0957 6.64919 35.487 0.791666 62.1079L6.65148 63.3972C12.0215 38.9921 30.336 20.9645 49.7385 12.3501C59.4282 8.04803 69.2136 6.17629 77.59 6.92706C85.9402 7.6755 92.7109 10.9939 96.8959 16.9198L101.797 13.4586ZM172.435 70.1862L168.131 83.7375L173.85 85.5536L178.154 72.0024L172.435 70.1862ZM170.991 84.6456C171.733 81.7388 171.733 81.7388 171.733 81.7388C171.733 81.7388 171.732 81.7387 171.732 81.7387C171.732 81.7386 171.731 81.7384 171.731 81.7383C171.729 81.7379 171.727 81.7374 171.724 81.7367C171.719 81.7353 171.711 81.7332 171.7 81.7305C171.679 81.7251 171.648 81.7172 171.607 81.7069C171.526 81.6862 171.407 81.6558 171.254 81.6172C170.949 81.5398 170.51 81.429 169.976 81.2949C168.908 81.0268 167.454 80.6651 165.914 80.2908C162.92 79.5631 159.353 78.726 157.831 78.5078L156.98 84.4472C158.145 84.6142 161.37 85.3611 164.497 86.1211C166.018 86.4907 167.457 86.8487 168.516 87.1145C169.045 87.2473 169.479 87.3569 169.78 87.4333C169.931 87.4715 170.048 87.5013 170.128 87.5216C170.168 87.5317 170.198 87.5394 170.218 87.5446C170.228 87.5472 170.236 87.5491 170.241 87.5504C170.243 87.5511 170.245 87.5515 170.247 87.5518C170.247 87.552 170.248 87.5521 170.248 87.5522C170.248 87.5522 170.248 87.5523 170.248 87.5523C170.248 87.5523 170.248 87.5523 170.991 84.6456Z" fill="#6941C6"/>
</svg>
