<svg width="152" height="133" viewBox="0 0 152 133" fill="none" xmlns="http://www.w3.org/2000/svg">
<path d="M16.2995 5.13909C16.5293 3.49825 15.3854 1.98181 13.7446 1.75203C12.1037 1.52226 10.5873 2.66615 10.3575 4.307L16.2995 5.13909ZM92.5029 67.3355L94.5788 65.1698L94.5782 65.1692L92.5029 67.3355ZM41.793 99.0057L44.7773 98.6996L44.7773 98.6993L41.793 99.0057ZM150.691 106.463C151.795 105.227 151.689 103.331 150.453 102.227C149.218 101.123 147.321 101.229 146.217 102.465L150.691 106.463ZM0.986259 10.8403C-0.225379 11.9704 -0.291487 13.8688 0.838601 15.0804C1.96869 16.292 3.86703 16.3581 5.07867 15.228L0.986259 10.8403ZM13.4301 3.33637L15.5027 1.16746C14.3533 0.0690415 12.5466 0.0580929 11.3839 1.1425L13.4301 3.33637ZM21.887 15.14C23.201 16.1493 25.0843 15.9024 26.0937 14.5885C27.103 13.2746 26.8561 11.3912 25.5422 10.3819L21.887 15.14ZM13.3285 4.72304C10.3575 4.307 10.3574 4.30809 10.3572 4.30945C10.3571 4.31025 10.3568 4.31187 10.3566 4.31347C10.3562 4.31668 10.3556 4.32092 10.3549 4.32619C10.3534 4.33673 10.3514 4.3514 10.3489 4.37015C10.3438 4.40764 10.3366 4.46143 10.3275 4.53107C10.3093 4.67034 10.2835 4.87305 10.2518 5.13562C10.1885 5.66073 10.1016 6.42556 10.0051 7.40162C9.81212 9.35324 9.58025 12.1523 9.4209 15.5704C9.10261 22.3977 9.07153 31.7387 10.2331 41.7513C12.529 61.5402 19.6203 85.0548 39.6581 95.9636L42.527 90.6939C25.2385 81.2819 18.4478 60.4936 16.1932 41.0599C15.0796 31.4612 15.1062 22.4608 15.4144 15.8498C15.5683 12.5486 15.7919 9.85416 15.976 7.99208C16.068 7.06128 16.1502 6.33921 16.2087 5.85413C16.2379 5.61161 16.2613 5.4284 16.277 5.30803C16.2848 5.24785 16.2908 5.20338 16.2946 5.17508C16.2965 5.16092 16.2979 5.15081 16.2988 5.1448C16.2992 5.14179 16.2994 5.1398 16.2996 5.13885C16.2996 5.13837 16.2996 5.13844 16.2997 5.1382C16.2996 5.13851 16.2995 5.13909 13.3285 4.72304ZM39.6581 95.9636C59.315 106.665 76.7481 103.292 87.5656 95.0974C92.9109 91.0482 96.6982 85.7671 98.1883 80.4057C99.6922 74.9949 98.8672 69.2805 94.5788 65.1698L90.4269 69.5012C92.7506 71.7287 93.471 74.9726 92.4075 78.799C91.3302 82.6749 88.4371 86.91 83.9426 90.3147C75.0805 97.0279 60.1965 100.313 42.527 90.6939L39.6581 95.9636ZM94.5782 65.1692C90.5709 61.3301 84.7314 59.5073 78.6375 59.2691C72.4988 59.0293 65.7796 60.3747 59.6397 63.2425C47.2976 69.0072 36.9449 81.1609 38.8087 99.3121L44.7773 98.6993C43.2297 83.6271 51.6193 73.6108 62.1788 68.6788C67.4896 66.1982 73.2609 65.0636 78.4032 65.2646C83.5903 65.4672 87.8223 67.006 90.4275 69.5018L94.5782 65.1692ZM38.8086 99.3118C39.7718 108.703 45.332 116.346 53.3012 121.822C61.2488 127.284 71.7283 130.708 83.0619 131.787C105.704 133.941 132.529 126.788 150.691 106.463L146.217 102.465C129.566 121.098 104.764 127.824 83.6301 125.814C73.0759 124.809 63.6305 121.641 56.6994 116.878C49.7899 112.129 45.5175 105.916 44.7773 98.6996L38.8086 99.3118ZM5.07867 15.228L15.4763 5.53023L11.3839 1.1425L0.986259 10.8403L5.07867 15.228ZM13.4301 3.33637C11.3575 5.50527 11.3575 5.50533 11.3576 5.50541C11.3577 5.50548 11.3578 5.50559 11.3579 5.50573C11.3582 5.506 11.3586 5.50639 11.3592 5.5069C11.3602 5.50791 11.3618 5.50939 11.3638 5.51133C11.3679 5.51522 11.3739 5.52095 11.3818 5.52848C11.3975 5.54353 11.4208 5.56575 11.4512 5.59472C11.5119 5.65266 11.601 5.73761 11.715 5.84617C11.943 6.06327 12.2708 6.3749 12.6707 6.75389C13.4702 7.51153 14.5596 8.53993 15.7176 9.62123C17.9698 11.7241 20.6677 14.2033 21.887 15.14L25.5422 10.3819C24.6087 9.66477 22.1643 7.43166 19.8124 5.23572C18.6685 4.1676 17.5904 3.14994 16.7979 2.39889C16.4018 2.02352 16.0775 1.71514 15.8524 1.50082C15.7399 1.39367 15.6522 1.31005 15.5927 1.25336C15.563 1.22501 15.5404 1.2034 15.5252 1.18894C15.5177 1.18171 15.512 1.17627 15.5082 1.17267C15.5063 1.17087 15.5049 1.16954 15.504 1.16867C15.5035 1.16823 15.5032 1.16791 15.503 1.16771C15.5029 1.16761 15.5028 1.16755 15.5028 1.1675C15.5027 1.16746 15.5027 1.16746 13.4301 3.33637Z" fill="#6941C6"/>
</svg>
