<svg width="150" height="63" viewBox="0 0 150 63" fill="none" xmlns="http://www.w3.org/2000/svg">
<path d="M142.899 8.45075C143.453 7.49573 144.678 7.17143 145.633 7.7264C146.588 8.28138 146.912 9.50548 146.357 10.4605L142.899 8.45075ZM59.2758 8.01656L59.1239 6.02233L59.1245 6.02229L59.2758 8.01656ZM77.5553 54.6036L76.1333 53.1972L76.1335 53.197L77.5553 54.6036ZM0.575988 2.64735C0.478075 1.54713 1.29061 0.575847 2.39083 0.477934C3.49105 0.38002 4.46233 1.19255 4.56024 2.29277L0.575988 2.64735ZM149.353 19.7509C149.552 20.8374 148.833 21.8795 147.746 22.0786C146.66 22.2776 145.617 21.5582 145.418 20.4717L149.353 19.7509ZM145.262 8.5204L145.113 6.52595C146.132 6.44989 147.045 7.1546 147.229 8.15997L145.262 8.5204ZM133.459 11.1542C132.355 11.1205 131.488 10.1981 131.521 9.09407C131.555 7.99001 132.477 7.12233 133.581 7.15605L133.459 11.1542ZM144.628 9.45563C146.357 10.4605 146.357 10.4612 146.356 10.4621C146.356 10.4626 146.355 10.4637 146.354 10.4648C146.353 10.4669 146.352 10.4698 146.349 10.4735C146.345 10.4807 146.339 10.4909 146.332 10.5039C146.316 10.53 146.294 10.5675 146.265 10.6161C146.207 10.7133 146.123 10.8548 146.012 11.0374C145.789 11.4026 145.462 11.9325 145.034 12.6017C144.178 13.9399 142.919 15.8368 141.298 18.0893C138.059 22.5895 133.356 28.5334 127.511 34.2812C115.916 45.6828 99.3425 56.7742 80.5465 53.3239L81.2687 49.3897C98.0485 52.4698 113.335 42.6106 124.706 31.4291C130.344 25.8852 134.901 20.1294 138.051 15.7527C139.624 13.5668 140.842 11.7311 141.664 10.4461C142.075 9.80379 142.387 9.29954 142.594 8.9585C142.698 8.788 142.776 8.65833 142.827 8.57264C142.852 8.5298 142.871 8.49796 142.883 8.47752C142.889 8.46729 142.893 8.45992 142.896 8.45544C142.897 8.4532 142.898 8.45169 142.898 8.4509C142.899 8.45051 142.899 8.45047 142.899 8.45028C142.899 8.45042 142.899 8.45075 144.628 9.45563ZM80.5465 53.3239C62.0652 49.9314 52.1727 38.8835 49.0632 28.2377C47.5224 22.9622 47.6355 17.7178 49.3125 13.6085C51.0108 9.44691 54.3763 6.38383 59.1239 6.02233L59.4276 10.0108C56.485 10.2348 54.2623 12.0658 53.016 15.1199C51.7482 18.2263 51.5602 22.5193 52.9028 27.1162C55.5604 36.2151 64.1741 46.2517 81.2687 49.3897L80.5465 53.3239ZM59.1245 6.02229C63.592 5.68339 68.3126 7.48808 72.4734 10.4522C76.6609 13.4354 80.4638 17.716 83.1261 22.6652C88.4666 32.593 89.3305 45.5451 78.977 56.0102L76.1335 53.197C84.9334 44.3022 84.3466 33.3775 79.6035 24.5601C77.224 20.1368 73.8269 16.3276 70.1526 13.7101C66.4516 11.0735 62.6485 9.76645 59.427 10.0108L59.1245 6.02229ZM78.9772 56.01C73.6579 61.3881 66.1645 63.3141 58.135 62.6556C50.1128 61.9976 41.3878 58.7603 33.2422 53.5854C16.9729 43.2494 2.5541 24.8748 0.575988 2.64735L4.56024 2.29277C6.40324 23.002 19.9048 40.373 35.3872 50.2091C43.1174 55.1202 51.2261 58.0755 58.462 58.669C65.6904 59.2618 71.8794 57.4981 76.1333 53.1972L78.9772 56.01ZM145.418 20.4717L143.295 8.88084L147.229 8.15997L149.353 19.7509L145.418 20.4717ZM145.262 8.5204C145.411 10.5149 145.411 10.5149 145.411 10.5149C145.411 10.5149 145.41 10.5149 145.41 10.5149C145.41 10.5149 145.41 10.515 145.409 10.515C145.408 10.5151 145.406 10.5152 145.404 10.5154C145.399 10.5157 145.392 10.5163 145.383 10.5169C145.365 10.5183 145.338 10.5203 145.303 10.5229C145.232 10.5281 145.129 10.5357 144.997 10.5453C144.733 10.5645 144.353 10.5919 143.891 10.6245C142.966 10.6897 141.709 10.776 140.378 10.8601C137.774 11.0247 134.724 11.1928 133.459 11.1542L133.581 7.15605C134.612 7.18754 137.434 7.03827 140.126 6.86804C141.444 6.78472 142.691 6.69916 143.61 6.63439C144.069 6.60202 144.445 6.57488 144.706 6.55584C144.837 6.54632 144.939 6.53883 145.008 6.53372C145.043 6.53117 145.069 6.52922 145.087 6.52791C145.096 6.52725 145.102 6.52676 145.107 6.52643C145.109 6.52627 145.111 6.52614 145.112 6.52606C145.112 6.52602 145.113 6.52599 145.113 6.52597C145.113 6.52596 145.113 6.52596 145.113 6.52595C145.113 6.52595 145.113 6.52595 145.262 8.5204Z" fill="#6941C6"/>
</svg>
