<svg width="157" height="126" viewBox="0 0 157 126" fill="none" xmlns="http://www.w3.org/2000/svg">
<path d="M31.5311 121.132C31.8587 122.757 30.8076 124.339 29.1835 124.666C27.5594 124.994 25.9772 123.943 25.6495 122.319L31.5311 121.132ZM94.3945 63.8351L96.5793 65.8909L96.5787 65.8916L94.3945 63.8351ZM48.7281 39.5638L51.7248 39.7037L51.7248 39.7041L48.7281 39.5638ZM143.34 26.8617C144.527 28.0181 144.551 29.9175 143.395 31.104C142.238 32.2905 140.339 32.3149 139.152 31.1585L143.34 26.8617ZM17.3372 117.521C16.05 116.477 15.8521 114.588 16.8953 113.301C17.9384 112.014 19.8276 111.816 21.1148 112.859L17.3372 117.521ZM28.7467 122.905L30.9284 124.964C29.8514 126.106 28.0769 126.224 26.8579 125.236L28.7467 122.905ZM35.2811 112.002C36.5402 110.925 38.434 111.073 39.5109 112.332C40.5879 113.591 40.4402 115.485 39.1811 116.561L35.2811 112.002ZM28.5903 121.726C25.6495 122.319 25.6493 122.318 25.6491 122.316C25.6489 122.316 25.6486 122.314 25.6483 122.313C25.6477 122.31 25.647 122.306 25.6461 122.301C25.6442 122.292 25.6417 122.279 25.6385 122.263C25.6321 122.231 25.623 122.184 25.6116 122.124C25.5886 122.005 25.5559 121.831 25.5152 121.607C25.4338 121.159 25.3201 120.506 25.1877 119.673C24.9229 118.009 24.5828 115.621 24.2755 112.698C23.662 106.862 23.1749 98.8522 23.6964 90.1962C24.7258 73.1084 29.7606 52.4345 46.8213 41.9022L49.9731 47.0077C35.5597 55.9057 30.691 73.8672 29.6855 90.5571C29.1895 98.79 29.6522 106.454 30.2426 112.071C30.5374 114.875 30.8629 117.157 31.1132 118.731C31.2384 119.518 31.3446 120.127 31.4187 120.535C31.4558 120.739 31.4848 120.893 31.504 120.994C31.5137 121.044 31.5209 121.081 31.5255 121.104C31.5278 121.116 31.5294 121.124 31.5303 121.129C31.5308 121.131 31.5311 121.133 31.5312 121.133C31.5313 121.133 31.5313 121.133 31.5313 121.133C31.5312 121.133 31.5311 121.132 28.5903 121.726ZM46.8213 41.9022C63.4976 31.6072 78.9724 33.5143 88.9197 40.0098C93.8284 43.2151 97.4585 47.5938 99.059 52.2134C100.68 56.8925 100.232 62.0089 96.5793 65.8909L92.2096 61.7793C93.9979 59.8787 94.4549 57.2524 93.3896 54.1776C92.3036 51.043 89.6557 47.6563 85.6392 45.0335C77.7358 39.8727 64.7709 37.8723 49.9731 47.0077L46.8213 41.9022ZM96.5787 65.8916C93.2008 69.4796 88.1202 71.3794 82.7841 71.9241C77.4018 72.4736 71.435 71.6869 65.8995 69.5539C54.77 65.2653 44.988 55.3017 45.7314 39.4235L51.7248 39.7041C51.1298 52.4126 58.7394 60.3648 68.0569 63.9551C72.7448 65.7616 77.7653 66.4053 82.1748 65.9551C86.6306 65.5003 90.1465 63.9707 92.2102 61.7787L96.5787 65.8916ZM45.7313 39.4238C46.1167 31.1711 50.6723 24.2297 57.3916 19.0661C64.0942 13.9153 73.0992 10.3928 82.9469 8.83901C102.612 5.7361 126.428 10.378 143.34 26.8617L139.152 31.1585C123.87 16.2636 102.093 11.8922 83.882 14.7657C74.7913 16.2001 66.7867 19.4132 61.0476 23.8236C55.3251 28.2211 52.0067 33.6663 51.7248 39.7037L45.7313 39.4238ZM21.1148 112.859L30.6355 120.575L26.8579 125.236L17.3372 117.521L21.1148 112.859ZM28.7467 122.905C26.5649 120.846 26.565 120.846 26.5651 120.846C26.5651 120.846 26.5652 120.846 26.5654 120.846C26.5656 120.845 26.5659 120.845 26.5664 120.845C26.5673 120.844 26.5685 120.842 26.5702 120.841C26.5736 120.837 26.5785 120.832 26.585 120.825C26.5981 120.811 26.6173 120.791 26.6423 120.764C26.6924 120.711 26.7658 120.634 26.8597 120.535C27.0476 120.336 27.3177 120.051 27.6472 119.705C28.3059 119.013 29.2039 118.073 30.1591 117.084C32.0094 115.168 34.2496 112.884 35.2811 112.002L39.1811 116.561C38.421 117.212 36.4189 119.239 34.4749 121.252C33.533 122.228 32.6458 123.156 31.9936 123.841C31.6677 124.184 31.4009 124.465 31.2157 124.661C31.1232 124.758 31.0511 124.835 31.0022 124.886C30.9778 124.912 30.9592 124.932 30.9468 124.945C30.9406 124.952 30.9359 124.956 30.9328 124.96C30.9313 124.961 30.9301 124.963 30.9294 124.963C30.929 124.964 30.9288 124.964 30.9286 124.964C30.9285 124.964 30.9285 124.964 30.9284 124.964C30.9284 124.964 30.9284 124.964 28.7467 122.905Z" fill="#6941C6"/>
</svg>
