<svg width="147" height="115" viewBox="0 0 147 115" fill="none" xmlns="http://www.w3.org/2000/svg">
<path d="M124.113 110.188C123.944 111.836 125.144 113.309 126.792 113.477C128.441 113.645 129.913 112.446 130.082 110.797L124.113 110.188ZM57.3917 59.4781L55.398 61.7198L55.3987 61.7204L57.3917 59.4781ZM99.7448 30.7759L96.774 31.1932L96.774 31.1935L99.7448 30.7759ZM6.04929 27.6008C4.99216 28.8766 5.16943 30.7678 6.44521 31.825C7.721 32.8821 9.61221 32.7048 10.6693 31.429L6.04929 27.6008ZM137.763 105.172C138.932 103.998 138.927 102.098 137.752 100.93C136.578 99.7612 134.678 99.766 133.51 100.941L137.763 105.172ZM127.055 111.682L125.064 113.926C126.254 114.981 128.06 114.925 129.181 113.798L127.055 111.682ZM119.696 101.505C118.346 100.545 116.473 100.863 115.513 102.213C114.554 103.564 114.871 105.437 116.221 106.396L119.696 101.505ZM127.097 110.493C130.082 110.797 130.082 110.796 130.082 110.795C130.082 110.794 130.082 110.793 130.082 110.791C130.083 110.789 130.083 110.785 130.083 110.78C130.084 110.771 130.086 110.758 130.087 110.741C130.091 110.708 130.095 110.661 130.101 110.601C130.112 110.48 130.128 110.304 130.146 110.077C130.184 109.623 130.234 108.963 130.286 108.122C130.389 106.441 130.498 104.032 130.525 101.096C130.579 95.2315 130.307 87.2181 128.989 78.6632C126.39 61.7885 119.546 41.7108 101.86 32.9216L99.19 38.2947C114.073 45.6908 120.515 63.0553 123.059 79.5766C124.314 87.7196 124.578 95.3925 124.525 101.04C124.499 103.86 124.395 106.163 124.297 107.755C124.248 108.551 124.201 109.168 124.167 109.582C124.15 109.788 124.136 109.944 124.126 110.047C124.122 110.098 124.118 110.135 124.116 110.159C124.114 110.171 124.114 110.179 124.113 110.184C124.113 110.186 124.113 110.188 124.113 110.188C124.113 110.189 124.113 110.189 124.113 110.189C124.113 110.188 124.113 110.188 127.097 110.493ZM101.86 32.9216C84.5627 24.3255 69.579 27.78 60.4532 35.245C55.9519 38.9271 52.8202 43.642 51.6914 48.3825C50.5506 53.173 51.4529 58.2111 55.398 61.7198L59.3854 57.2365C57.4739 55.5363 56.7684 52.9631 57.5282 49.7724C58.2999 46.5317 60.577 42.8954 64.2521 39.8891C71.4792 33.9773 83.9188 30.7056 99.19 38.2947L101.86 32.9216ZM55.3987 61.7204C59.0528 64.9685 64.2213 66.3569 69.5055 66.3661C74.8346 66.3753 80.6053 64.9924 85.823 62.3137C96.3195 56.9251 104.92 46.0418 102.716 30.3583L96.774 31.1935C98.5478 43.812 91.8289 52.486 83.0828 56.976C78.6792 59.2367 73.8478 60.3735 69.5159 60.3661C65.1391 60.3585 61.5877 59.194 59.3848 57.2359L55.3987 61.7204ZM102.716 30.3587C101.57 22.2024 96.4746 15.7444 89.4065 11.2661C82.3605 6.80189 73.2144 4.19265 63.4317 3.62934C43.8914 2.50416 21.0363 9.5139 6.04929 27.6008L10.6693 31.429C24.2088 15.0891 45.0594 8.58135 63.0868 9.61942C72.0879 10.1377 80.1911 12.5303 86.1952 16.3344C92.1772 20.1245 95.9325 25.2014 96.774 31.1932L102.716 30.3587ZM133.51 100.941L124.928 109.566L129.181 113.798L137.763 105.172L133.51 100.941ZM127.055 111.682C129.045 109.437 129.045 109.437 129.045 109.437C129.045 109.437 129.045 109.437 129.045 109.437C129.044 109.436 129.044 109.436 129.043 109.436C129.042 109.435 129.041 109.433 129.039 109.432C129.036 109.429 129.03 109.424 129.023 109.418C129.009 109.405 128.989 109.387 128.962 109.363C128.908 109.315 128.829 109.246 128.728 109.156C128.526 108.978 128.235 108.721 127.881 108.41C127.172 107.787 126.207 106.942 125.181 106.053C123.195 104.333 120.79 102.282 119.696 101.505L116.221 106.396C117.021 106.965 119.164 108.779 121.253 110.588C122.264 111.464 123.218 112.299 123.919 112.916C124.269 113.224 124.556 113.477 124.755 113.653C124.855 113.741 124.932 113.81 124.985 113.856C125.011 113.879 125.031 113.897 125.045 113.909C125.051 113.915 125.056 113.919 125.06 113.922C125.061 113.924 125.063 113.925 125.063 113.925C125.064 113.926 125.064 113.926 125.064 113.926C125.064 113.926 125.064 113.926 125.064 113.926C125.064 113.926 125.064 113.926 127.055 111.682Z" fill="#6941C6"/>
</svg>
