<svg width="173" height="107" viewBox="0 0 173 107" fill="none" xmlns="http://www.w3.org/2000/svg">
<path d="M13.874 4.62236C13.5936 2.9894 12.0426 1.89292 10.4096 2.1733C8.77666 2.45368 7.68018 4.00474 7.96056 5.6377L13.874 4.62236ZM105.389 40.6833L106.707 37.9886L106.707 37.9882L105.389 40.6833ZM66.7196 86.2814L69.4693 85.0818L69.4692 85.0814L66.7196 86.2814ZM172.723 60.2502C173.399 58.7374 172.72 56.9633 171.208 56.2875C169.695 55.6118 167.921 56.2903 167.245 57.8031L172.723 60.2502ZM1.02154 14.7127C0.211201 16.1578 0.725839 17.9863 2.17101 18.7966C3.61618 19.607 5.44463 19.0923 6.25497 17.6471L1.02154 14.7127ZM10.5921 3.7782L11.9065 1.08148C10.4774 0.384885 8.75298 0.924199 7.9754 2.31096L10.5921 3.7782ZM22.2396 12.449C23.7983 13.0107 25.5173 12.2024 26.079 10.6437C26.6407 9.08492 25.8324 7.36597 24.2737 6.80427L22.2396 12.449ZM10.9173 5.13003C7.96056 5.6377 7.96075 5.63879 7.96098 5.64015C7.96112 5.64094 7.96139 5.64256 7.96167 5.64415C7.96222 5.64733 7.96295 5.65155 7.96386 5.65679C7.96569 5.66728 7.96824 5.68187 7.97153 5.7005C7.9781 5.73776 7.98761 5.79118 8.00014 5.86029C8.02519 5.99849 8.06229 6.19943 8.11202 6.4592C8.21146 6.97868 8.36143 7.73367 8.56647 8.69282C8.97645 10.6106 9.60723 13.3475 10.4955 16.652C12.2696 23.2525 15.0822 32.16 19.2353 41.3444C27.4435 59.4965 41.3534 79.7385 63.7604 84.0331L64.8898 78.1403C45.5572 74.435 32.7632 56.6986 24.7024 38.8723C20.721 30.0676 18.0078 21.4859 16.2898 15.0945C15.432 11.9031 14.8251 9.26834 14.4339 7.43851C14.2384 6.52385 14.0969 5.81102 14.005 5.33114C13.9591 5.09122 13.9256 4.90959 13.9039 4.79015C13.8931 4.73043 13.8853 4.68626 13.8803 4.65813C13.8778 4.64407 13.8761 4.63401 13.875 4.62803C13.8745 4.62504 13.8741 4.62306 13.874 4.62212C13.8739 4.62164 13.8739 4.6217 13.8739 4.62146C13.8739 4.62178 13.874 4.62236 10.9173 5.13003ZM63.7604 84.0331C85.7414 88.246 101.322 79.7285 109.133 68.631C112.993 63.1474 114.993 56.9644 114.782 51.4038C114.568 45.792 112.043 40.5995 106.707 37.9886L104.07 43.378C106.961 44.7927 108.635 47.6636 108.786 51.6322C108.939 55.6521 107.472 60.5667 104.226 65.1775C97.8271 74.2689 84.6485 81.9273 64.8898 78.1403L63.7604 84.0331ZM106.707 37.9882C101.721 35.5504 95.6039 35.5908 89.7265 37.2182C83.8059 38.8575 77.8146 42.1836 72.8384 46.7837C62.8355 56.0304 56.6717 70.7579 63.9701 87.4813L69.4692 85.0814C63.4089 71.1948 68.3532 59.1007 76.9112 51.1896C81.2155 47.2107 86.368 44.3739 91.3276 43.0006C96.3304 41.6154 100.83 41.7935 104.071 43.3783L106.707 37.9882ZM63.9699 87.481C67.7449 96.1338 75.367 101.723 84.6247 104.515C93.8572 107.299 104.882 107.372 116.006 104.951C138.23 100.114 161.606 85.1378 172.723 60.2502L167.245 57.8031C157.053 80.6192 135.473 94.5731 114.73 99.0883C104.371 101.343 94.4089 101.198 86.3571 98.7702C78.3305 96.3496 72.3703 91.7312 69.4693 85.0818L63.9699 87.481ZM6.25497 17.6471L13.2088 5.24544L7.9754 2.31096L1.02154 14.7127L6.25497 17.6471ZM10.5921 3.7782C9.27768 6.47491 9.27775 6.47495 9.27786 6.475C9.27795 6.47504 9.2781 6.47512 9.27828 6.4752C9.27863 6.47537 9.27914 6.47562 9.2798 6.47594C9.28111 6.47658 9.28304 6.47752 9.28557 6.47876C9.29063 6.48122 9.29809 6.48485 9.30788 6.48962C9.32748 6.49916 9.35642 6.51325 9.39416 6.53161C9.46965 6.56832 9.58037 6.62213 9.72202 6.69085C10.0053 6.82828 10.4123 7.0254 10.9086 7.26474C11.9007 7.74321 13.2513 8.39137 14.6835 9.06903C17.4687 10.3869 20.793 11.9277 22.2396 12.449L24.2737 6.80427C23.1662 6.40521 20.1583 5.02175 17.2497 3.64553C15.835 2.97613 14.4985 2.33474 13.515 1.86044C13.0235 1.62339 12.6207 1.42831 12.3411 1.29264C12.2013 1.22482 12.0923 1.17185 12.0184 1.13593C11.9815 1.11796 11.9533 1.10427 11.9345 1.0951C11.9251 1.09052 11.918 1.08707 11.9133 1.08479C11.911 1.08365 11.9092 1.0828 11.9081 1.08225C11.9075 1.08197 11.9071 1.08177 11.9069 1.08164C11.9067 1.08158 11.9067 1.08154 11.9066 1.08151C11.9066 1.08149 11.9065 1.08148 10.5921 3.7782Z" fill="#6941C6"/>
</svg>
