<svg width="147" height="164" viewBox="0 0 147 164" fill="none" xmlns="http://www.w3.org/2000/svg">
<path d="M140.622 111.199C141.602 110.689 142.81 111.07 143.32 112.049C143.83 113.029 143.45 114.237 142.47 114.747L140.622 111.199ZM70.1917 66.1167L71.1297 64.3504L71.1302 64.3506L70.1917 66.1167ZM60.7266 115.258L60.2771 113.31L60.2773 113.31L60.7266 115.258ZM23.4602 30.1909C23.9658 29.2089 25.1718 28.8226 26.1538 29.3282C27.1359 29.8338 27.5222 31.0397 27.0166 32.0218L23.4602 30.1909ZM140.034 124.2C139.621 125.224 138.456 125.72 137.432 125.307C136.407 124.895 135.911 123.729 136.324 122.705L140.034 124.2ZM142.582 112.522L143.523 110.757C144.425 111.238 144.819 112.321 144.438 113.27L142.582 112.522ZM131.201 108.436C130.286 107.818 130.046 106.574 130.664 105.659C131.283 104.744 132.527 104.504 133.442 105.123L131.201 108.436ZM141.546 112.973C142.47 114.747 142.47 114.747 142.469 114.748C142.468 114.748 142.467 114.749 142.466 114.749C142.464 114.751 142.461 114.752 142.457 114.754C142.45 114.758 142.439 114.763 142.426 114.77C142.399 114.784 142.36 114.804 142.31 114.83C142.209 114.881 142.062 114.955 141.87 115.05C141.487 115.24 140.927 115.512 140.207 115.849C138.768 116.522 136.69 117.452 134.116 118.488C128.972 120.559 121.82 123.067 113.807 124.798C97.9124 128.233 77.9766 128.743 63.9386 115.777L66.6526 112.838C79.1849 124.414 97.3744 124.257 112.962 120.889C120.691 119.219 127.62 116.792 132.622 114.778C135.12 113.772 137.131 112.872 138.512 112.226C139.203 111.903 139.736 111.643 140.094 111.466C140.273 111.377 140.408 111.309 140.497 111.264C140.541 111.241 140.574 111.225 140.595 111.214C140.605 111.208 140.613 111.204 140.618 111.202C140.62 111.201 140.622 111.2 140.622 111.2C140.623 111.199 140.623 111.199 140.623 111.199C140.623 111.199 140.622 111.199 141.546 112.973ZM63.9386 115.777C50.1355 103.027 47.6839 88.4017 50.749 77.743C52.2679 72.4611 55.1679 68.09 58.7823 65.5143C62.4427 62.9058 66.9246 62.1171 71.1297 64.3504L69.2536 67.8831C66.6472 66.4989 63.79 66.8575 61.1036 68.7718C58.3713 70.719 55.9167 74.2461 54.5932 78.8485C51.9735 87.9583 53.8853 101.046 66.6526 112.838L63.9386 115.777ZM71.1302 64.3506C75.0866 66.4532 78.1106 70.5024 80.0415 75.2321C81.9849 79.9922 82.9094 85.6429 82.5126 91.2487C81.7167 102.494 75.5209 113.9 61.1759 117.207L60.2773 113.31C72.4697 110.499 77.8157 100.953 78.5226 90.9663C78.8772 85.9561 78.0434 80.9207 76.3383 76.744C74.6207 72.537 72.106 69.3989 69.2531 67.8828L71.1302 64.3506ZM61.1761 117.207C53.8054 118.907 46.4434 116.528 40.0104 111.678C33.5833 106.832 27.9416 99.431 23.8256 90.7023C15.6047 73.2685 13.246 50.0314 23.4602 30.1909L27.0166 32.0218C17.5001 50.507 19.6203 72.4057 27.4436 88.9963C31.3497 97.2799 36.6214 104.113 42.4185 108.484C48.2097 112.85 54.3826 114.669 60.2771 113.31L61.1761 117.207ZM136.324 122.705L140.727 111.775L144.438 113.27L140.034 124.2L136.324 122.705ZM142.582 112.522C141.642 114.287 141.642 114.287 141.642 114.287C141.641 114.287 141.641 114.287 141.641 114.287C141.641 114.287 141.641 114.286 141.64 114.286C141.639 114.286 141.637 114.285 141.635 114.284C141.631 114.281 141.625 114.278 141.617 114.274C141.601 114.265 141.577 114.253 141.546 114.236C141.484 114.203 141.392 114.154 141.276 114.091C141.042 113.966 140.707 113.787 140.299 113.567C139.483 113.128 138.374 112.528 137.205 111.888C134.916 110.634 132.249 109.146 131.201 108.436L133.442 105.123C134.296 105.701 136.76 107.084 139.126 108.379C140.284 109.014 141.384 109.608 142.195 110.045C142.6 110.263 142.932 110.441 143.163 110.565C143.279 110.627 143.369 110.675 143.43 110.708C143.461 110.724 143.484 110.736 143.5 110.745C143.508 110.749 143.514 110.752 143.517 110.754C143.519 110.755 143.521 110.756 143.522 110.756C143.522 110.757 143.523 110.757 143.523 110.757C143.523 110.757 143.523 110.757 143.523 110.757C143.523 110.757 143.523 110.757 142.582 112.522Z" fill="#6941C6"/>
</svg>
